<?xml version="1.0" encoding="UTF-8" standalone="no"?>
<!-- Created with Inkscape (http://www.inkscape.org/) -->

<svg
   version="1.1"
   id="svg1"
   width="793.27997"
   height="1122.5601"
   viewBox="0 0 793.27997 1122.5601"
   xmlns="http://www.w3.org/2000/svg"
   xmlns:svg="http://www.w3.org/2000/svg">
  <defs
     id="defs1">
    <clipPath
       clipPathUnits="userSpaceOnUse"
       id="clipPath2">
      <path
         d="M 0,0 H 2479.9805 V 3508.0078 H 0 Z"
         transform="scale(0.31999999)"
         clip-rule="evenodd"
         id="path2" />
    </clipPath>
    <clipPath
       clipPathUnits="userSpaceOnUse"
       id="clipPath3">
      <path
         d="M 0,0 H 2479.9805 V 3508.0078 H 0 Z"
         transform="matrix(0.31999999,0,0,0.31999999,-7.9999997,-26.999999)"
         clip-rule="evenodd"
         id="path3" />
    </clipPath>
    <clipPath
       clipPathUnits="userSpaceOnUse"
       id="clipPath5">
      <path
         d="M 0,0 H 2479.9805 V 3508.0078 H 0 Z"
         transform="scale(0.31999999)"
         clip-rule="evenodd"
         id="path5" />
    </clipPath>
    <clipPath
       clipPathUnits="userSpaceOnUse"
       id="clipPath6">
      <path
         d="M 0,0 H 2479.9805 V 3508.0078 H 0 Z"
         transform="matrix(0.31999999,0,0,0.31999999,-26.890624,-26.999999)"
         clip-rule="evenodd"
         id="path6" />
    </clipPath>
    <clipPath
       clipPathUnits="userSpaceOnUse"
       id="clipPath8">
      <path
         d="M 0,0 H 2479.9805 V 3508.0078 H 0 Z"
         transform="scale(0.31999999)"
         clip-rule="evenodd"
         id="path8" />
    </clipPath>
    <clipPath
       clipPathUnits="userSpaceOnUse"
       id="clipPath9">
      <path
         d="M 0,0 H 2479.9805 V 3508.0078 H 0 Z"
         transform="matrix(0.31999999,0,0,0.31999999,-44.656248,-26.999999)"
         clip-rule="evenodd"
         id="path9" />
    </clipPath>
    <clipPath
       clipPathUnits="userSpaceOnUse"
       id="clipPath11">
      <path
         d="M 0,0 H 2479.9805 V 3508.0078 H 0 Z"
         transform="scale(0.31999999)"
         clip-rule="evenodd"
         id="path11" />
    </clipPath>
    <clipPath
       clipPathUnits="userSpaceOnUse"
       id="clipPath12">
      <path
         d="M 0,0 H 2479.9805 V 3508.0078 H 0 Z"
         transform="matrix(0.31999999,0,0,0.31999999,-60.140622,-26.999999)"
         clip-rule="evenodd"
         id="path12" />
    </clipPath>
    <clipPath
       clipPathUnits="userSpaceOnUse"
       id="clipPath14">
      <path
         d="M 0,0 H 2479.9805 V 3508.0078 H 0 Z"
         transform="scale(0.31999999)"
         clip-rule="evenodd"
         id="path14" />
    </clipPath>
    <clipPath
       clipPathUnits="userSpaceOnUse"
       id="clipPath15">
      <path
         d="M 0,0 H 2479.9805 V 3508.0078 H 0 Z"
         transform="matrix(0.31999999,0,0,0.31999999,-75.843747,-26.999999)"
         clip-rule="evenodd"
         id="path15" />
    </clipPath>
    <clipPath
       clipPathUnits="userSpaceOnUse"
       id="clipPath17">
      <path
         d="M 0,0 H 2479.9805 V 3508.0078 H 0 Z"
         transform="scale(0.31999999)"
         clip-rule="evenodd"
         id="path17" />
    </clipPath>
    <clipPath
       clipPathUnits="userSpaceOnUse"
       id="clipPath18">
      <path
         d="M 0,0 H 2479.9805 V 3508.0078 H 0 Z"
         transform="matrix(0.31999999,0,0,0.31999999,-90.906246,-26.999999)"
         clip-rule="evenodd"
         id="path18" />
    </clipPath>
  </defs>
  <g
     id="g1">
    <path
       id="path1"
       d="m 21.342285,9.3120117 c 0.687662,0 1.118979,0.4435225 1.293945,1.3305663 0.08545,2.754721 0.128174,5.741373 0.128174,8.959961 0,3.214518 -0.02034,5.106607 -0.06104,5.67627 -0.03662,0.565591 -0.193277,0.998941 -0.469971,1.300048 -0.276693,0.297038 -0.732421,0.445557 -1.367187,0.445557 -0.777182,0 -1.165772,-0.439453 -1.165772,-1.318359 v -5.651856 c 0,-0.911459 -0.01628,-1.849365 -0.04883,-2.81372 -0.03255,-0.968424 0.08952,-1.454671 0.366211,-1.458741 -0.24414,0.960287 -0.870767,1.778158 -1.879883,2.453614 -1.005044,0.675455 -2.150471,1.013183 -3.436279,1.013183 -1.285807,0 -2.079264,-0.183105 -2.380371,-0.549316 -0.0041,0.09359 -0.0061,0.836181 -0.0061,2.227783 0,1.387533 0.0081,2.846273 0.02441,4.376221 0,0.598144 -0.197347,1.035562 -0.592041,1.312256 -0.390625,0.272623 -0.817871,0.408935 -1.281739,0.408935 -0.7934567,0 -1.1901852,-0.447592 -1.1901852,-1.342773 0.016276,-1.501465 0.024414,-3.875733 0.024414,-7.122803 v -7.104492 c 0,-0.390625 0.1363116,-0.777181 0.4089356,-1.159668 0.2766924,-0.3865559 0.6144206,-0.5798342 1.0131836,-0.5798342 0.398763,0 0.764974,0.107829 1.098633,0.3234862 0.333659,0.215657 0.514729,0.55542 0.543213,1.019287 0.06104,1.76595 0.321452,3.037517 0.78125,3.814698 0.459798,0.77718 0.988769,1.165771 1.586914,1.165771 0.598144,0 1.12915,-0.107829 1.593017,-0.323486 0.467936,-0.215658 0.852457,-0.461833 1.153565,-0.738526 0.301107,-0.280761 0.596109,-0.685628 0.88501,-1.214599 0.435384,-0.809734 0.85856,-1.808675 1.269531,-2.996827 0.325521,-0.9684244 0.895181,-1.4526363 1.708984,-1.4526363 z"
       style="fill:#000000;fill-opacity:1;fill-rule:nonzero;stroke:none"
       clip-path="url(#clipPath2)" />
    <g
       id="g2" />
    <text
       id="text2"
       xml:space="preserve"
       transform="translate(7.9999997,26.999999)"
       clip-path="url(#clipPath3)"><tspan
         id="tspan2"
         style="font-variant:normal;font-weight:normal;font-size:25px;font-family:'Patrick Hand';writing-mode:lr-tb;fill:#000000;fill-opacity:0;fill-rule:nonzero;stroke:none"
         x="0"
         y="0">M</tspan></text>
    <path
       id="path4"
       d="m 37.858643,9.8735352 c 0.329589,-0.3743487 0.718181,-0.5615235 1.165771,-0.5615235 0.45166,0 0.850422,0.2461748 1.196289,0.7385253 0.305176,1.554362 0.457764,3.24707 0.457764,5.078125 v 1.904297 c 0,1.464844 -0.02645,2.333578 -0.07935,2.606201 -0.0529,0.272623 -0.105793,0.569662 -0.158691,0.891113 -0.04883,0.321452 -0.09562,0.571696 -0.140381,0.750733 -0.04476,0.174967 -0.10783,0.4069 -0.189209,0.695801 -0.199383,0.671386 -0.476074,1.261392 -0.830078,1.770019 -0.533039,0.996908 -1.249188,1.78833 -2.148438,2.374268 C 36.237141,26.707031 35.311443,27 34.355225,27 c -0.952149,0 -1.912434,-0.396729 -2.88086,-1.190186 -0.964355,-0.793457 -1.749674,-1.774087 -2.355957,-2.941894 -0.90332,-1.778158 -1.35498,-3.814697 -1.35498,-6.109619 0,-0.797527 0.120035,-2.699788 0.360107,-5.706787 0.170899,-0.390625 0.415039,-0.724284 0.732422,-1.000977 0.321451,-0.2766923 0.673422,-0.415039 1.055908,-0.415039 0.65918,0 1.057944,0.417073 1.196289,1.251221 -0.236002,2.909342 -0.354004,4.740397 -0.354004,5.493164 0,1.753744 0.339762,3.302002 1.019288,4.644775 0.427246,0.878906 0.931804,1.597086 1.513671,2.154541 0.585938,0.557455 1.127118,0.836182 1.623536,0.836182 0.826007,0 1.570636,-0.724283 2.233886,-2.172852 0.284832,-0.500488 0.441487,-1.330566 0.469971,-2.490234 0,-0.370279 0.01628,-0.624594 0.04883,-0.76294 l 0.05493,-3.240966 c 0,-1.497396 -0.118,-2.878825 -0.354004,-4.144287 0,-0.512696 0.164795,-0.956218 0.494385,-1.3305668 z"
       style="fill:#000000;fill-opacity:1;fill-rule:nonzero;stroke:none"
       clip-path="url(#clipPath5)" />
    <g
       id="g5" />
    <text
       id="text5"
       xml:space="preserve"
       transform="translate(26.890624,26.999999)"
       clip-path="url(#clipPath6)"><tspan
         id="tspan5"
         style="font-variant:normal;font-weight:normal;font-size:25px;font-family:'Patrick Hand';writing-mode:lr-tb;fill:#000000;fill-opacity:0;fill-rule:nonzero;stroke:none"
         x="0"
         y="0">U</tspan></text>
    <path
       id="path7"
       d="m 51.827881,9.409668 c 1.163738,0 2.191162,0.2176923 3.082275,0.653076 0.891114,0.431316 1.33667,1.037598 1.33667,1.818848 0,0.354004 -0.10376,0.683594 -0.311279,0.988769 -0.20752,0.301107 -0.498455,0.451661 -0.872803,0.451661 -0.370281,0 -0.956219,-0.187175 -1.757812,-0.561524 -0.797528,-0.374349 -1.483155,-0.561523 -2.056885,-0.561523 -0.573731,0 -1.147461,0.170898 -1.721192,0.512695 -0.57373,0.341797 -0.860595,0.714111 -0.860595,1.116943 0,0.594076 0.323486,1.035564 0.970459,1.324463 0.598144,0.268555 1.503498,0.518799 2.716064,0.750733 1.212567,0.231933 2.237957,0.73649 3.076172,1.513671 0.842285,0.777182 1.263428,1.940918 1.263428,3.491211 0,2.298991 -0.705975,4.01001 -2.11792,5.133057 C 53.764729,26.680582 52.651855,27 51.23584,27 c -1.411945,0 -2.805584,-0.378418 -4.180908,-1.135254 -1.033528,-0.549316 -1.550293,-1.151529 -1.550293,-1.806641 0,-0.276693 0.09766,-0.555419 0.292968,-0.836181 0.199383,-0.280762 0.480145,-0.514731 0.842286,-0.701904 0.36214,-0.191245 0.685627,-0.223795 0.970459,-0.09766 0.288898,0.126139 0.665283,0.305176 1.12915,0.53711 0.463867,0.231933 0.79549,0.386556 0.994873,0.463867 0.642902,0.24414 1.21867,0.366211 1.727295,0.366211 0.508625,0 1.000976,-0.25228 1.477051,-0.756836 0.480144,-0.504557 0.720215,-1.129151 0.720215,-1.873779 0,-0.931803 -0.476075,-1.58895 -1.428223,-1.971436 -0.528973,-0.219727 -1.135254,-0.384521 -1.818848,-0.494385 -1.574707,-0.280761 -2.787273,-0.775146 -3.637695,-1.483154 -0.846356,-0.708008 -1.269531,-1.780192 -1.269531,-3.216553 0,-1.440429 0.602214,-2.563476 1.80664,-3.36914 1.204426,-0.8097338 2.709961,-1.2146 4.516602,-1.2146 z"
       style="fill:#000000;fill-opacity:1;fill-rule:nonzero;stroke:none"
       clip-path="url(#clipPath8)" />
    <g
       id="g8" />
    <text
       id="text8"
       xml:space="preserve"
       transform="translate(44.656248,26.999999)"
       clip-path="url(#clipPath9)"><tspan
         id="tspan8"
         style="font-variant:normal;font-weight:normal;font-size:25px;font-family:'Patrick Hand';writing-mode:lr-tb;fill:#000000;fill-opacity:0;fill-rule:nonzero;stroke:none"
         x="0"
         y="0">S</tspan></text>
    <path
       id="path10"
       d="M 61.727539,9.7392578 71.957031,9.5866699 c 0.78125,0.2400713 1.171875,0.6551101 1.171875,1.2451171 0,1.180013 -0.514732,1.77002 -1.544189,1.77002 -1.241051,0 -2.402748,0.02441 -3.485108,0.07324 -0.0651,1.114909 -0.09766,2.032471 -0.09766,2.752685 0,0.720215 0,1.177979 0,1.373291 l 0.10376,8.776856 c 0,0.777181 -0.254311,1.243082 -0.76294,1.397705 -0.248207,0.08138 -0.551353,0.12207 -0.909423,0.12207 -0.801598,0 -1.241051,-0.433349 -1.31836,-1.300049 -0.09766,-1.298013 -0.146484,-3.710937 -0.146484,-7.238769 0,-3.527832 0.05289,-5.482991 0.158691,-5.865479 -0.0041,0.0529 -0.351967,0.07935 -1.043701,0.07935 -0.687664,0 -1.540119,-0.0081 -2.557373,-0.02441 -0.415039,0 -0.746662,-0.136312 -0.994873,-0.408935 -0.244141,-0.272624 -0.366211,-0.594076 -0.366211,-0.964356 0,-0.374349 0.146484,-0.728352 0.439453,-1.062012 0.297039,-0.3336589 0.671387,-0.5249021 1.123047,-0.5737302 z"
       style="fill:#000000;fill-opacity:1;fill-rule:nonzero;stroke:none"
       clip-path="url(#clipPath11)" />
    <g
       id="g11" />
    <text
       id="text11"
       xml:space="preserve"
       transform="translate(60.140622,26.999999)"
       clip-path="url(#clipPath12)"><tspan
         id="tspan11"
         style="font-variant:normal;font-weight:normal;font-size:25px;font-family:'Patrick Hand';writing-mode:lr-tb;fill:#000000;fill-opacity:0;fill-rule:nonzero;stroke:none"
         x="0"
         y="0">T</tspan></text>
    <path
       id="path13"
       d="m 77.223145,18.168213 c -0.236001,-0.154623 -0.354004,-0.449625 -0.354004,-0.88501 0,-0.439453 0.08952,-0.771078 0.268554,-0.994873 -0.06103,-1.546224 -0.09155,-3.26945 -0.09155,-5.169678 0.134277,-0.545247 0.345863,-0.94401 0.634765,-1.1962887 0.292969,-0.2563477 0.705971,-0.4170733 1.239014,-0.4821778 2.22168,0.097656 4.628502,0.1464844 7.220459,0.1464844 0.944008,0.1993819 1.416015,0.6469731 1.416015,1.3427731 0,1.017253 -0.844322,1.599122 -2.532958,1.745606 -0.382485,0.01628 -0.793458,0.02441 -1.232911,0.02441 h -1.629638 c -0.333657,0 -1.035561,-0.05086 -2.105713,-0.152588 0,1.68864 0.02035,2.762858 0.06104,3.222656 0.569664,0.01221 2.12606,0.01831 4.669189,0.01831 0.915528,0.179036 1.373291,0.606283 1.373291,1.281738 0,0.671387 -0.329589,1.167807 -0.988769,1.489258 -0.07731,0.0529 -0.236,0.107828 -0.476074,0.164795 l -4.388428,-0.07324 c -0.227867,0 -0.33773,-0.07324 -0.32959,-0.219727 l 0.305176,4.046631 c 0,0.988769 -0.002,1.507568 -0.0061,1.556396 l 5.249024,-0.07324 c 0.854492,0.138346 1.281738,0.53711 1.281738,1.196289 0,0.378418 -0.152588,0.738526 -0.457764,1.080323 -0.305175,0.341796 -0.679527,0.563558 -1.123046,0.665283 L 78.767334,27 c -0.524902,0 -0.915527,-0.120035 -1.171875,-0.360107 -0.252281,-0.240073 -0.378418,-0.61442 -0.378418,-1.123047 0.06918,-0.463867 0.10376,-1.200358 0.10376,-2.209473 v -1.745605 l -0.09766,-3.393555 z"
       style="fill:#000000;fill-opacity:1;fill-rule:nonzero;stroke:none"
       clip-path="url(#clipPath14)" />
    <g
       id="g14" />
    <text
       id="text14"
       xml:space="preserve"
       transform="translate(75.843747,26.999999)"
       clip-path="url(#clipPath15)"><tspan
         id="tspan14"
         style="font-variant:normal;font-weight:normal;font-size:25px;font-family:'Patrick Hand';writing-mode:lr-tb;fill:#000000;fill-opacity:0;fill-rule:nonzero;stroke:none"
         x="0"
         y="0">E</tspan></text>
    <path
       id="path16"
       d="m 94.91626,25.400879 c 0,0.459799 -0.187172,0.85856 -0.561524,1.196289 -0.370277,0.333658 -0.807701,0.500488 -1.312256,0.500488 -0.500488,0 -0.854492,-0.345865 -1.062011,-1.037597 -0.04883,-2.250163 -0.07324,-4.467774 -0.07324,-6.652832 l -0.07324,-6.298829 c 0,-1.501464 0.661217,-2.526855 1.983643,-3.076171 0.960289,-0.4475913 2.095543,-0.6713872 3.405762,-0.6713872 0.703941,0 1.450599,0.1688643 2.23999,0.5065918 0.789386,0.3377274 1.507566,0.8402514 2.154536,1.5075684 0.65104,0.663249 0.97656,1.407878 0.97656,2.233887 0,0.82194 -0.34383,1.664225 -1.03149,2.526855 -0.68766,0.858561 -1.51978,1.605225 -2.496335,2.23999 -0.976562,0.634766 -1.601158,0.998942 -1.873779,1.09253 1.01725,0.716146 2.130127,1.727295 3.338614,3.033447 1.2085,1.302084 1.81275,2.362061 1.81275,3.179932 0,0.370279 -0.16276,0.699869 -0.48828,0.988769 -0.32553,0.28483 -0.71615,0.427246 -1.17188,0.427246 -0.45166,0 -0.854485,-0.215658 -1.208489,-0.646972 -0.35807,-0.862631 -1.031494,-1.761881 -2.020264,-2.697754 -0.984703,-0.939942 -1.869713,-1.664225 -2.655029,-2.172852 l 0.115967,3.820801 z m -0.09766,-8.03833 c 0.663246,-0.02848 1.631675,-0.445557 2.905273,-1.251221 1.273598,-0.809733 1.9104,-1.470947 1.9104,-1.983642 0,-0.512696 -0.286865,-0.923666 -0.860595,-1.232911 -0.573731,-0.313313 -1.300049,-0.46997 -2.178955,-0.46997 -0.878907,0 -1.464844,0.059 -1.757813,0.177002 -0.01221,0.622558 -0.01831,2.209472 -0.01831,4.760742 z"
       style="fill:#000000;fill-opacity:1;fill-rule:nonzero;stroke:none"
       clip-path="url(#clipPath17)" />
    <g
       id="g17" />
    <text
       id="text17"
       xml:space="preserve"
       transform="translate(90.906246,26.999999)"
       clip-path="url(#clipPath18)"><tspan
         id="tspan17"
         style="font-variant:normal;font-weight:normal;font-size:25px;font-family:'Patrick Hand';writing-mode:lr-tb;fill:#000000;fill-opacity:0;fill-rule:nonzero;stroke:none"
         x="0"
         y="0">R</tspan></text>
  </g>
</svg>
